<?xml version="1.0" encoding="UTF-8" standalone="no"?>
<!DOCTYPE svg PUBLIC "-//W3C//DTD SVG 1.1//EN" "http://www.w3.org/Graphics/SVG/1.1/DTD/svg11.dtd">
<svg width="100%" height="100%" viewBox="0 0 1024 1024" version="1.1" xmlns="http://www.w3.org/2000/svg" xmlns:xlink="http://www.w3.org/1999/xlink" xml:space="preserve" xmlns:serif="http://www.serif.com/" style="fill-rule:evenodd;clip-rule:evenodd;stroke-linejoin:round;stroke-miterlimit:2;">
    <rect id="アートボード1" x="0" y="0" width="1024" height="1024" style="fill:none;"/>
    <g id="アートボード11" serif:id="アートボード1">
        <g transform="matrix(0.589966,0,0,0.589966,-10.4352,167.025)">
            <path d="M159.368,161.239L427.344,161.239L427.344,236.607L268.233,236.607L268.233,297.859L404.135,297.859L404.135,368.681L268.233,368.681L268.233,512L159.368,512L159.368,161.239Z" style="fill:rgb(0,96,255);fill-rule:nonzero;"/>
            <path d="M713.982,161.239L822.129,161.239L822.129,370.356C822.129,391.092 818.899,410.672 812.439,429.095C805.979,447.518 795.85,463.629 782.052,477.426C768.255,491.224 753.779,500.914 738.626,506.497C717.571,514.313 692.288,518.221 662.779,518.221C645.712,518.221 627.089,517.025 606.911,514.632C586.733,512.239 569.865,507.494 556.307,500.396C542.748,493.298 530.347,483.209 519.101,470.129C507.856,457.049 500.16,443.571 496.012,429.693C489.313,407.362 485.963,387.583 485.963,370.356L485.963,161.239L594.11,161.239L594.11,375.38C594.11,394.521 599.414,409.475 610.021,420.242C620.629,431.009 635.344,436.393 654.166,436.393C672.828,436.393 687.463,431.089 698.071,420.482C708.678,409.874 713.982,394.84 713.982,375.38L713.982,161.239Z" style="fill:rgb(0,96,255);fill-rule:nonzero;"/>
            <path d="M895.344,512L895.344,161.239L1075.99,161.239C1109.49,161.239 1135.09,164.11 1152.79,169.853C1170.5,175.595 1184.77,186.242 1195.62,201.794C1206.47,217.347 1211.89,236.288 1211.89,258.62C1211.89,278.08 1207.74,294.868 1199.45,308.985C1191.15,323.101 1179.75,334.546 1165.23,343.319C1155.98,348.902 1143.3,353.528 1127.19,357.196C1140.11,361.503 1149.52,365.81 1155.42,370.117C1159.41,372.988 1165.19,379.129 1172.77,388.54C1180.35,397.951 1185.41,405.209 1187.96,410.313L1240.36,512L1117.86,512L1059.96,404.81C1052.62,390.933 1046.08,381.92 1040.34,377.773C1032.52,372.35 1023.67,369.638 1013.78,369.638L1004.21,369.638L1004.21,512L895.344,512ZM1004.21,303.362L1049.91,303.362C1054.85,303.362 1064.42,301.767 1078.62,298.577C1085.8,297.141 1091.66,293.472 1096.21,287.571C1100.75,281.669 1103.03,274.89 1103.03,267.233C1103.03,255.908 1099.44,247.215 1092.26,241.153C1085.08,235.092 1071.6,232.061 1051.82,232.061L1004.21,232.061L1004.21,303.362Z" style="fill:rgb(0,96,255);fill-rule:nonzero;"/>
            <path d="M1494.94,161.239L1603.09,161.239L1603.09,370.356C1603.09,391.092 1599.86,410.672 1593.4,429.095C1586.94,447.518 1576.81,463.629 1563.01,477.426C1549.21,491.224 1534.74,500.914 1519.58,506.497C1498.53,514.313 1473.25,518.221 1443.74,518.221C1426.67,518.221 1408.05,517.025 1387.87,514.632C1367.69,512.239 1350.82,507.494 1337.26,500.396C1323.71,493.298 1311.3,483.209 1300.06,470.129C1288.81,457.049 1281.12,443.571 1276.97,429.693C1270.27,407.362 1266.92,387.583 1266.92,370.356L1266.92,161.239L1375.07,161.239L1375.07,375.38C1375.07,394.521 1380.37,409.475 1390.98,420.242C1401.59,431.009 1416.3,436.393 1435.12,436.393C1453.79,436.393 1468.42,431.089 1479.03,420.482C1489.63,409.874 1494.94,394.84 1494.94,375.38L1494.94,161.239Z" style="fill:rgb(0,96,255);fill-rule:nonzero;"/>
            <path d="M392.411,858.693L487.399,887.405C481.018,914.043 470.969,936.294 457.252,954.16C443.534,972.025 426.506,985.503 406.169,994.595C385.831,1003.69 359.951,1008.23 328.528,1008.23C290.405,1008.23 259.261,1002.69 235.095,991.604C210.929,980.518 190.074,961.018 172.528,933.104C154.982,905.19 146.209,869.46 146.209,825.914C146.209,767.853 161.641,723.23 192.506,692.046C223.371,660.862 267.037,645.27 323.503,645.27C367.687,645.27 402.42,654.202 427.702,672.067C452.985,689.933 471.767,717.368 484.049,754.374L388.344,775.669C384.994,764.982 381.485,757.166 377.816,752.221C371.755,743.926 364.337,737.546 355.564,733.08C346.791,728.613 336.982,726.38 326.135,726.38C301.571,726.38 282.748,736.27 269.669,756.049C259.779,770.724 254.834,793.773 254.834,825.196C254.834,864.117 260.736,890.794 272.54,905.23C284.344,919.666 300.933,926.883 322.307,926.883C343.043,926.883 358.715,921.061 369.322,909.417C379.929,897.773 387.626,880.865 392.411,858.693Z" style="fill:rgb(0,96,255);fill-rule:nonzero;"/>
            <path d="M526.399,826.871C526.399,769.607 542.35,725.025 574.252,693.123C606.153,661.221 650.577,645.27 707.521,645.27C765.902,645.27 810.883,660.942 842.466,692.285C874.049,723.629 889.84,767.534 889.84,824C889.84,864.994 882.942,898.61 869.144,924.85C855.347,951.089 835.408,971.506 809.328,986.101C783.248,1000.7 750.748,1007.99 711.828,1007.99C672.27,1007.99 639.531,1001.69 613.61,989.092C587.69,976.491 566.675,956.552 550.564,929.276C534.454,902 526.399,867.865 526.399,826.871ZM634.785,827.35C634.785,862.761 641.365,888.202 654.525,903.675C667.684,919.147 685.589,926.883 708.239,926.883C731.528,926.883 749.552,919.307 762.313,904.153C775.074,889 781.454,861.804 781.454,822.564C781.454,789.546 774.794,765.42 761.475,750.187C748.156,734.954 730.092,727.337 707.282,727.337C685.429,727.337 667.883,735.074 654.644,750.546C641.405,766.018 634.785,791.62 634.785,827.35Z" style="fill:rgb(0,96,255);fill-rule:nonzero;"/>
            <path d="M949.656,651.252L1110.68,651.252C1142.42,651.252 1168.06,655.558 1187.6,664.172C1207.14,672.785 1223.29,685.147 1236.06,701.258C1248.82,717.368 1258.07,736.11 1263.81,757.485C1269.55,778.859 1272.42,801.509 1272.42,825.436C1272.42,862.92 1268.16,891.991 1259.62,912.647C1251.09,933.304 1239.25,950.61 1224.09,964.567C1208.94,978.525 1192.67,987.816 1175.28,992.442C1151.52,998.822 1129.98,1002.01 1110.68,1002.01L949.656,1002.01L949.656,651.252ZM1058.04,730.687L1058.04,922.337L1084.6,922.337C1107.25,922.337 1123.36,919.825 1132.93,914.801C1142.5,909.776 1150,901.003 1155.42,888.482C1160.85,875.96 1163.56,855.663 1163.56,827.589C1163.56,790.423 1157.5,764.982 1145.37,751.264C1133.25,737.546 1113.15,730.687 1085.08,730.687L1058.04,730.687Z" style="fill:rgb(0,96,255);fill-rule:nonzero;"/>
            <path d="M1329.13,651.252L1619.6,651.252L1619.6,726.141L1437.76,726.141L1437.76,781.89L1606.44,781.89L1606.44,853.429L1437.76,853.429L1437.76,922.577L1624.86,922.577L1624.86,1002.01L1329.13,1002.01L1329.13,651.252Z" style="fill:rgb(0,96,255);fill-rule:nonzero;"/>
        </g>
    </g>
</svg>
